<?xml version="1.0" encoding="UTF-8"?>
<svg version="1.1" xmlns="http://www.w3.org/2000/svg" width="1280" height="994">
<path d="M0 0 C422.4 0 844.8 0 1280 0 C1280 328.02 1280 656.04 1280 994 C857.6 994 435.2 994 0 994 C0 665.98 0 337.96 0 0 Z " fill="#D0D0D0" transform="translate(0,0)"/>
<path d="M0 0 C5.04882251 4.23020309 9.7884892 8.64608717 14.43624783 13.31040668 C15.15513006 14.02783548 15.87401229 14.74526427 16.61467883 15.48443332 C19.02034794 17.88645615 21.42244475 20.29201931 23.8245697 22.69758606 C25.56694042 24.43880444 27.30952906 26.17980478 29.05231673 27.92060584 C32.83953556 31.70451935 36.62519712 35.48998073 40.40948677 39.27682304 C46.03658669 44.90770837 51.66654537 50.53572893 57.29706577 56.16319374 C67.35187958 66.21274392 77.40383333 76.26515096 87.45457085 86.31877773 C96.24637466 95.11309653 105.03910663 103.90648601 113.83276558 112.69894981 C114.4159364 113.28204425 114.99910721 113.86513868 115.59994987 114.46590264 C117.96713118 116.83277261 120.33431601 119.19963905 122.70150667 121.56649967 C144.90329622 143.76523069 167.10216915 165.96687631 189.29973791 188.16982781 C209.03534634 207.91018554 228.77354356 227.64795125 248.51391602 247.38354492 C270.68516036 269.54943997 292.85479515 291.71694278 315.02181822 313.88705939 C317.38252389 316.24808579 319.7432335 318.60910824 322.10394478 320.97012901 C322.68522563 321.55148894 323.26650648 322.13284887 323.8654019 322.73182576 C332.65806976 331.52563294 341.45197436 340.31820209 350.24647331 349.11017799 C360.23764721 359.09849984 370.22704707 369.08859204 380.21407449 379.08105991 C385.80920681 384.67913928 391.40572595 390.27582387 397.00421104 395.87055029 C401.17220557 400.03605399 405.337611 404.20413968 409.50196714 408.37328096 C411.19602598 410.06846541 412.89094602 411.76278973 414.58677017 413.45620821 C416.87502129 415.74145974 419.16023251 418.02970643 421.44464016 420.31879902 C422.45478291 421.32543002 422.45478291 421.32543002 423.48533258 422.35239699 C428 426.88584956 428 426.88584956 428 428 C70.94 428 -286.12 428 -654 428 C-650.28269721 423.66314675 -646.72573106 419.60095684 -642.71705818 415.59401035 C-642.21881837 415.0946167 -641.72057857 414.59522305 -641.20724058 414.08069625 C-639.55084398 412.42167013 -637.89093004 410.76621071 -636.23098755 409.11073303 C-635.02527895 407.90458798 -633.81979029 406.69822305 -632.61450183 405.49165815 C-629.3124418 402.1873677 -626.00728129 398.88619402 -622.70159626 395.58553064 C-619.13339325 392.02165283 -615.56808759 388.45487857 -612.00242615 384.88845825 C-605.82778663 378.71329481 -599.65132127 372.53996251 -593.47360611 366.36787605 C-584.54170838 357.44411115 -575.61257873 348.51758072 -566.68411861 339.59037655 C-552.19761826 325.10606391 -537.70888693 310.62398507 -523.21875 296.14331055 C-509.14433517 282.07807708 -495.07097276 268.01179196 -480.99902344 253.9440918 C-480.13138407 253.07671515 -479.26374469 252.2093385 -478.36981322 251.31567771 C-474.01705508 246.96422463 -469.66431762 242.61275087 -465.31159043 238.26126683 C-429.21093131 202.17097158 -393.1066503 166.08430128 -357 130 C-352.90157592 133.45203723 -348.9236196 136.95161986 -345.13404846 140.74569702 C-344.23252548 141.64584534 -343.3310025 142.54599365 -342.40216064 143.47341919 C-341.42634456 144.45277296 -340.45057712 145.43217519 -339.47485352 146.41162109 C-338.42971433 147.45704281 -337.38435399 148.50224346 -336.33879089 149.54724121 C-333.51887071 152.36687602 -330.70203131 155.18957008 -327.88575864 158.01284742 C-324.93540106 160.96948186 -321.98218671 163.9232601 -319.02928162 166.87734985 C-313.44594797 172.46378408 -307.86516704 178.05276117 -302.28531164 183.64266932 C-295.92933522 190.0098465 -289.57049857 196.37416394 -283.21142685 202.73824954 C-270.13777896 215.82233299 -257.0677052 228.90998143 -244 242 C-240.5927238 240.52639095 -238.37482461 238.62365011 -235.75963974 236.0057354 C-234.49367104 234.74573984 -234.49367104 234.74573984 -233.20212722 233.46028984 C-232.27995099 232.53228793 -231.35777477 231.60428602 -230.40765381 230.64816284 C-229.41467627 229.65605732 -228.42125939 228.66439135 -227.42744088 227.67312825 C-224.6955874 224.945753 -221.97001966 222.21217029 -219.24541998 219.47755122 C-216.30701759 216.53052352 -213.36284964 213.5892659 -210.41937256 210.64730835 C-205.31965847 205.5486437 -200.22362324 200.44632576 -195.13005829 195.3415184 C-187.76558604 187.96080203 -180.39560681 180.58560503 -173.02426556 173.21174969 C-161.06532196 161.24842728 -149.11085286 149.28064402 -137.15917969 137.31005859 C-125.54823984 125.68076476 -113.93520428 114.05357034 -102.31933594 102.42919922 C-101.24559387 101.35466898 -101.24559387 101.35466898 -100.15016004 100.25843106 C-96.55909988 96.66476085 -92.96799839 93.07113194 -89.37687635 89.47752357 C-59.57817411 59.65808302 -29.78672551 29.83140383 0 0 Z " fill="#EFEFEF" transform="translate(745,475)"/>
<path d="M0 0 C14.62465583 11.96752952 24.54716734 25.76192711 30 44 C30.3196875 45.02480469 30.639375 46.04960937 30.96875 47.10546875 C36.94592732 68.93876925 31.82137667 90.54473968 21.375 110.03125 C10.01486016 129.03763782 -8.23616162 142.14577484 -29.3125 148.5 C-51.60440407 153.95761413 -74.49628842 150.23667493 -94.21972656 139.08203125 C-98.50162409 136.4795395 -102.24982768 133.29959708 -106 130 C-106.804375 129.3915625 -107.60875 128.783125 -108.4375 128.15625 C-118.38999955 119.78158575 -125.09204207 107.86565703 -130 96 C-130.45503906 94.90171875 -130.91007813 93.8034375 -131.37890625 92.671875 C-137.26050468 75.04757307 -136.58263623 52.02078814 -129 35 C-128.5659082 34.02353516 -128.5659082 34.02353516 -128.12304688 33.02734375 C-117.84850053 10.73310518 -99.74374872 -4.58405454 -77.02001953 -13.28369141 C-50.92001628 -22.53887748 -21.73932055 -16.35597054 0 0 Z " fill="#EFEFEF" transform="translate(368,231)"/>
</svg>
